<svg id="Layer_1" data-name="Layer 1" xmlns="http://www.w3.org/2000/svg" viewBox="0 0 686.25 180.3"><defs><style>.cls-1{fill:#fff;}.cls-1,.cls-2{fill-rule:evenodd;}.cls-2{fill:#a1a1a1;}</style></defs><title>funxional_logo</title><path class="cls-1" d="M90.69,271.12h11.62V259.51a40.53,40.53,0,0,1,13.16-30.65,43.85,43.85,0,0,1,31.2-12.45h3.5v23.23h-3.5a20.72,20.72,0,0,0-14.69,6,18.55,18.55,0,0,0-6.3,13.92v11.61h16.37v23.37H125.68V312a42.73,42.73,0,0,1-13,31.34,42.73,42.73,0,0,1-31.35,13h-3.5V333h3.5a21.28,21.28,0,0,0,21-21v-17.5H90.69Zm192.14-4.43h21.9v24l-1-1v35.4l.33.31.71.65v50.22l-54.69-66V351.5h-21.9V250.26l54.69,66Zm431.08-25.08h22.34v83.6h27.82v22.34H713.91Zm-25,36.6v-13H711v99.23h-22.1V351.65A39.66,39.66,0,0,1,669,356.81a40.18,40.18,0,0,1-29.57-12.3,43.16,43.16,0,0,1-7.62-10.23v-38.8a42.77,42.77,0,0,1,7.62-10.19A40.28,40.28,0,0,1,669,273.05a39.66,39.66,0,0,1,19.85,5.16M669,295a20.22,20.22,0,1,0,14,6,19,19,0,0,0-14-6m-60.77-18.7,22.55-.45V387.79l-56.3-69.26v43.94l-22.55.45V306a49.79,49.79,0,0,0,0-22.52V254.88l56.3,69.27ZM465.73,294.69a43.17,43.17,0,0,1,12.64-31.28,42.59,42.59,0,0,1,61.15,0,44.93,44.93,0,0,1,0,62.63,42.43,42.43,0,0,1-61.15,0,43.41,43.41,0,0,1-12.64-31.35m22.69,0a20.25,20.25,0,0,0,6.15,14.76,19.71,19.71,0,0,0,28.76,0,20.87,20.87,0,0,0,0-29.45,19.56,19.56,0,0,0-28.76,0,20.31,20.31,0,0,0-6.15,14.69m-50.37-44.82h23.37v83.49H438.05Zm-295,15H165.2v39.05a19.46,19.46,0,0,0,5.89,14.15,19.31,19.31,0,0,0,27.94,0,19.46,19.46,0,0,0,5.89-14.15V264.86H227v39.05A41.25,41.25,0,0,1,214.72,334a41.49,41.49,0,0,1-59.32,0,41.25,41.25,0,0,1-12.31-30.06Z" transform="translate(-77.82 -207.49)"/><path class="cls-1" d="M316.14,229.44v0a7.47,7.47,0,0,0,2,5.39,7,7,0,0,0,9.9,0,6.87,6.87,0,0,0,2-5,7.87,7.87,0,0,0-2-5.36,6.16,6.16,0,0,0-4.87-2.2,6.8,6.8,0,0,0-5,2.09,6.89,6.89,0,0,0-2.07,5m-94.5.75-.2,0-.71-.08a3,3,0,0,1-.52-.05,1.55,1.55,0,0,0-.37,0h-.05c-.79-.09-1.57-.17-2.36-.24a17.53,17.53,0,0,0-1.78-.11,9.6,9.6,0,0,0-4.24.77,6.09,6.09,0,0,0-2.06,1.64,3.52,3.52,0,0,0-.6,1.21,4.46,4.46,0,0,0-.14.89,3.13,3.13,0,0,0,1.24,2.61,5.55,5.55,0,0,0,2.92,1.2h.06l.06,0a.25.25,0,0,0,.12,0h.57a9.33,9.33,0,0,0,4.48-1.49,15.77,15.77,0,0,0,3.58-3Zm111.05-7.35v16.67a8.92,8.92,0,0,1-1.83,5c-1.5,2-4.56,2.32-6.86,2.32a17.46,17.46,0,0,1-2-.13c-.81-.09-1.61-.21-2.42-.36l-1.71-.34q-.78-.16-1.53-.36a3.59,3.59,0,0,1-.47-.12l-.34-.1-.51-.13.72-2.58.5.14c1,.31,2.1.59,3.15.83a23.94,23.94,0,0,0,2.65.42l1,.07,1,0h.12a9,9,0,0,0,4.15-1.07c1.39-.77,1.72-2.31,1.72-3.79v-3a10.39,10.39,0,0,1-2.47,2.1,8.5,8.5,0,0,1-4.48,1.21,9.64,9.64,0,0,1-7-2.83,9.81,9.81,0,0,1-2.9-7.29,9.23,9.23,0,0,1,3-7,9.84,9.84,0,0,1,7-2.8h.46a9.26,9.26,0,0,1,4.24,1.36,7.82,7.82,0,0,1,2.16,2v-2.71h6.36v2.52Zm-35.51-.08a18,18,0,0,1,3.12-2,10.07,10.07,0,0,1,4.53-1.08c1.78,0,4,.29,5.15,1.79a7.13,7.13,0,0,1,1.52,3.75,2,2,0,0,1,.05.48v11.71h3.67V240h-10v-2.52h3.71V227a6.9,6.9,0,0,0-.77-3.49c-.61-1-2.08-1.15-3.12-1.15a8.23,8.23,0,0,0-4.2,1.09,29.82,29.82,0,0,0-3.63,2.48v11.51h3.71V240H290.82v-2.52h3.71v-14.6h-3.71v-2.52h6.36Zm-14.41-6.87H278.9v-5.66h3.87Zm0,21.55h7.82V240H272.26v-2.52h7.86v-14.6h-6.59v-2.52h9.24ZM254,222.76a18,18,0,0,1,3.12-2,10.07,10.07,0,0,1,4.53-1.08c1.78,0,4,.29,5.15,1.79a7.21,7.21,0,0,1,1.52,3.75,2.61,2.61,0,0,1,0,.48v11.71h3.67V240H262v-2.52h3.71V227a6.9,6.9,0,0,0-.77-3.49c-.61-1-2.08-1.15-3.12-1.15a8.23,8.23,0,0,0-4.2,1.09,29.82,29.82,0,0,0-3.63,2.48v11.51h3.71V240H247.67v-2.52h3.71v-14.6h-3.71v-2.52H254Zm-14.41-6.87h-3.87v-5.66h3.87Zm0,21.55h7.81V240H229.11v-2.52H237v-14.6h-6.6v-2.52h9.25Zm-31.21-13.87-.79-1.79.5-.2a40.8,40.8,0,0,1,4-1.31,16.55,16.55,0,0,1,4.26-.56,9.68,9.68,0,0,1,4.72,1,6.5,6.5,0,0,1,2.37,2.17,5.51,5.51,0,0,1,.67,1.74,7.91,7.91,0,0,1,.14,1.18v11.67h3.93V240h-6.58v-3a17.16,17.16,0,0,1-3.25,2.29,10.49,10.49,0,0,1-5.1,1.33,8.46,8.46,0,0,1-5.22-1.72,5.71,5.71,0,0,1-2.37-4.82,5.43,5.43,0,0,1,2-4.3,10.82,10.82,0,0,1,4.11-2.22c.48-.12,1-.22,1.45-.3a9.2,9.2,0,0,1,1.39-.12c.61,0,1.23.05,1.83.09l2.4.18h.06l.07,0a.25.25,0,0,0,.12,0h.34l1.49.16.73.06v-1.28a3.37,3.37,0,0,0-1.48-3.21,7.58,7.58,0,0,0-3.6-.94h-.25q-.65,0-1.26.06c-.44,0-.88.11-1.3.19a21.23,21.23,0,0,0-2.37.64c-.76.25-1.52.53-2.25.85l-.72.32Zm-15.7,1.12c.55-.5,1.11-1,1.69-1.48a24.1,24.1,0,0,1,2.5-1.85,12.35,12.35,0,0,1,2.51-1.21,8.53,8.53,0,0,1,2.7-.44,5.23,5.23,0,0,1,2.95.87,3.56,3.56,0,0,1,1.58,2.69l.06.5-2.58.36-.08-.51a1.37,1.37,0,0,0-.62-1,2.34,2.34,0,0,0-1.31-.39,7.76,7.76,0,0,0-3.53,1.09,33.48,33.48,0,0,0-5.87,4.69v9.43h8.56V240H184.43v-2.52h5.63v-14.6h-5.24v-2.52h7.89Zm-23.84-4.37h11.44v2.52H168.87v10c0,1.28.16,3.05,1.11,4A4.91,4.91,0,0,0,173.5,238a13.45,13.45,0,0,0,3.22-.45,33.58,33.58,0,0,0,5.23-1.87l.6-.25.43,2.45-.28.19a3.37,3.37,0,0,1-.32.19,1.88,1.88,0,0,1-.3.12c-.78.36-1.58.69-2.39,1a17.92,17.92,0,0,1-2.57.74q-.87.21-1.74.36a11.36,11.36,0,0,1-1.75.13,9.22,9.22,0,0,1-5-1.43c-1.83-1.16-2.38-3.18-2.38-5.24v-11.1h-3.06v-2.52h3.06v-5.89h2.65Z" transform="translate(-77.82 -207.49)"/><path class="cls-2" d="M400.36,294.69h0q36.09,27.93,37.95,65h-26c-.13-15.83-7.57-29.72-25.67-40.74-18.38,31.54-48.75,36.49-81.95,5.68V292.18c25.55,25.36,47.26,36.36,58.33,7.65L329.2,250.6H363l17,24.69,17-24.69h33.76Zm-21.42-87.2a18.63,18.63,0,1,1-18.63,18.63,18.63,18.63,0,0,1,18.63-18.63" transform="translate(-77.82 -207.49)"/></svg>